<svg width="72" height="100" viewBox="0 0 72 100" fill="none" xmlns="http://www.w3.org/2000/svg">
<g clip-path="url(#clip0_409_93)">
<path d="M36.3131 99.7473L7.45375 91.7358L1.02258 19.6027H71.6901L65.2521 91.7245L36.3131 99.7473Z" fill="#264DE4"/>
<path d="M59.7405 87.132L65.2421 25.5006H36.3563V93.615L59.7405 87.132Z" fill="#2965F1"/>
<path d="M15.7659 52.2538L16.5588 61.1005H36.3564V52.2538H15.7659Z" fill="#EBEBEB"/>
<path d="M14.1727 34.3475L14.9769 43.1945H36.3563V34.3475H14.1727Z" fill="#EBEBEB"/>
<path d="M36.3563 75.2299L36.3176 75.2403L26.4648 72.5798L25.8349 65.524H16.9541L18.1935 79.4148L36.3156 84.4457L36.3563 84.4343V75.2299Z" fill="#EBEBEB"/>
<path d="M17.6537 0H28.3687V4.48084H22.1345V8.96168H28.3687V13.4425H17.6537V0Z" fill="black"/>
<path d="M30.5118 0H41.2268V3.89638H34.9926V4.67566H41.2268V13.6373H30.5118V9.54613H36.746V8.76686H30.5118V0Z" fill="black"/>
<path d="M43.3698 0H54.0849V3.89638H47.8507V4.67566H54.0849V13.6373H43.3698V9.54613H49.604V8.76686H43.3698V0Z" fill="black"/>
<path d="M56.8901 52.2537L58.4872 34.3475H36.3257V43.1945H48.7918L47.9868 52.2537H36.3257V61.1005H47.2196L46.1927 72.5742L36.3257 75.2373V84.4414L54.4622 79.4148L54.5953 77.9202L56.6742 54.6294L56.8901 52.2537Z" fill="white"/>
</g>
<defs>
<clipPath id="clip0_409_93">
<rect width="70.9141" height="100" fill="white" transform="translate(0.899292)"/>
</clipPath>
</defs>
</svg>
