<svg width="72" height="100" viewBox="0 0 72 100" fill="none" xmlns="http://www.w3.org/2000/svg">
<g id="html-5 1" clip-path="url(#clip0_409_81)">
<g id="Group">
<path id="Vector" d="M71.7759 19.6027L65.3379 91.7245L36.3989 99.7473L7.53957 91.7358L1.1084 19.6027H71.7759Z" fill="#E44D26"/>
<path id="Vector_2" d="M36.4421 93.615L59.8263 87.132L65.328 25.5006H36.4421V93.615Z" fill="#F16529"/>
<path id="Vector_3" d="M23.927 43.1945H36.4421V34.3475H14.2585L14.4703 36.721L16.6446 61.1005H36.4421V52.2537H24.7355L23.927 43.1945Z" fill="#EBEBEB"/>
<path id="Vector_4" d="M25.9207 65.524H17.0399L18.2794 79.4148L36.4014 84.4457L36.4421 84.4343V75.2299L36.4034 75.2403L26.5506 72.5798L25.9207 65.524Z" fill="#EBEBEB"/>
<path id="Vector_5" d="M7.68335 0H12.1792V4.44187H16.2918V0H20.7879V13.4511H16.292V8.94687H12.1794V13.4511H7.68354L7.68335 0Z" fill="black"/>
<path id="Vector_6" d="M26.7 4.46058H22.7421V0H35.1559V4.46058H31.1962V13.4511H26.7002L26.7 4.46058Z" fill="black"/>
<path id="Vector_7" d="M37.1262 0H41.8141L44.6978 4.72631L47.5786 0H52.2683V13.4511H47.7909V6.78399L44.6978 11.5666H44.6205L41.5252 6.78399V13.4511H37.1262V0Z" fill="black"/>
<path id="Vector_8" d="M54.5057 0H59.0029V9.00493H65.3254V13.4511H54.5057V0Z" fill="black"/>
<path id="Vector_9" d="M36.4116 61.1005H47.3055L46.2786 72.5742L36.4116 75.2374V84.4414L54.548 79.4149L54.6811 77.9202L56.76 54.6294L56.9759 52.2538H36.4116V61.1005Z" fill="white"/>
<path id="Vector_10" d="M36.4116 43.1728V43.1945H57.7809L57.9584 41.2059L58.3614 36.721L58.573 34.3475H36.4116V43.1728Z" fill="white"/>
</g>
</g>
<defs>
<clipPath id="clip0_409_81">
<rect width="70.9141" height="100" fill="white" transform="translate(0.985107)"/>
</clipPath>
</defs>
</svg>
