<svg width="101" height="100" viewBox="0 0 101 100" fill="none" xmlns="http://www.w3.org/2000/svg">
<g id="javascript 1" clip-path="url(#clip0_409_104)">
<g id="Group">
<path id="Vector" d="M0.813354 0H100.813V100H0.813354V0Z" fill="#F7DF1E"/>
<path id="Vector_2" d="M27.107 83.5673L34.7597 78.936C36.2361 81.5536 37.5791 83.7684 40.8005 83.7684C43.8885 83.7684 45.8353 82.5605 45.8353 77.8621V45.9097H55.2327V77.9949C55.2327 87.7282 49.5273 92.1586 41.2034 92.1586C33.6858 92.1586 29.322 88.2651 27.1069 83.5665" fill="black"/>
<path id="Vector_3" d="M60.3372 82.5604L67.9889 78.1301C70.0032 81.4196 72.6211 83.8359 77.2526 83.8359C81.1464 83.8359 83.6294 81.8891 83.6294 79.204C83.6294 75.982 81.0787 74.8407 76.7826 72.9618L74.4338 71.9542C67.6537 69.0683 63.156 65.4435 63.156 57.791C63.156 50.7428 68.526 45.3724 76.9172 45.3724C82.8914 45.3724 87.1875 47.4535 90.2749 52.8909L82.9581 57.5894C81.347 54.7032 79.6022 53.5623 76.9173 53.5623C74.1651 53.5623 72.4197 55.3075 72.4197 57.5894C72.4197 60.4088 74.1651 61.5502 78.1922 63.2956L80.5414 64.3024C88.5295 67.7261 93.0272 71.2162 93.0272 79.0697C93.0272 87.5282 86.3818 92.1594 77.4541 92.1594C68.7278 92.1594 63.0889 87.9978 60.3372 82.5604Z" fill="black"/>
</g>
</g>
<defs>
<clipPath id="clip0_409_104">
<rect width="100" height="100" fill="white" transform="translate(0.813354)"/>
</clipPath>
</defs>
</svg>
