<svg width="102" height="100" viewBox="0 0 102 100" fill="none" xmlns="http://www.w3.org/2000/svg">
<g id="nestjs 1" clip-path="url(#clip0_409_123)">
<g id="Group">
<path id="Vector" d="M59.9556 0C59.2296 0 58.5555 0.155563 57.9333 0.36297C59.2555 1.24447 59.9815 2.41116 60.3445 3.73341C60.3705 3.91489 60.4222 4.04453 60.4482 4.226C60.4742 4.38157 60.5 4.53712 60.5 4.69269C60.6038 6.97421 59.9037 7.2594 59.4111 8.60757C58.6592 10.3446 58.8666 12.2114 59.7741 13.7151C59.8519 13.8966 59.9556 14.104 60.0852 14.2855C59.1 7.72608 64.5705 6.74087 65.5816 4.69269C65.6594 2.90376 64.1816 1.71114 63.0149 0.881497C61.9001 0.207412 60.8889 0 59.9556 0ZM68.2002 1.47781C68.0964 2.07411 68.1742 1.91856 68.1484 2.22968C68.1224 2.43708 68.1224 2.69635 68.0965 2.90376C68.0447 3.11117 67.9928 3.31858 67.9151 3.526C67.8632 3.73341 67.7854 3.94082 67.7076 4.14823C67.6039 4.35565 67.5262 4.53713 67.4225 4.74454C67.3447 4.84829 67.2928 4.95194 67.215 5.05566C67.1632 5.13344 67.1113 5.21121 67.0595 5.28899C66.9299 5.47049 66.8002 5.65196 66.6706 5.80752C66.515 5.96308 66.3854 6.14456 66.2039 6.2742C66.2039 6.30016 66.2039 6.30016 66.2039 6.30016C66.0483 6.42979 65.8928 6.58535 65.7113 6.71498C65.1669 7.1298 64.5446 7.44092 63.9742 7.82982C63.7928 7.95945 63.6113 8.06316 63.4557 8.21872C63.2742 8.34834 63.1187 8.47797 62.9631 8.63354C62.7816 8.78909 62.652 8.94466 62.4964 9.12614C62.3668 9.2817 62.2112 9.46318 62.1075 9.64467C61.9779 9.82615 61.8483 10.0076 61.7446 10.1891C61.6408 10.3965 61.5631 10.578 61.4594 10.7854C61.3816 10.9928 61.3038 11.1743 61.252 11.3817C61.1742 11.6151 61.1223 11.8225 61.0705 12.0299C61.0445 12.1337 61.0445 12.2632 61.0187 12.3669C60.9927 12.4707 60.9927 12.5743 60.9669 12.6781C60.9669 12.8855 60.9409 13.1188 60.9409 13.3262C60.9409 13.4818 60.9409 13.6373 60.9669 13.7929C60.9669 14.0003 60.9928 14.2077 61.0446 14.4411C61.0706 14.6485 61.1224 14.8559 61.1743 15.0633C61.252 15.2707 61.3039 15.4781 61.3817 15.6855C61.4335 15.8152 61.5113 15.9448 61.5632 16.0485L55.6001 13.741C54.5889 13.4558 53.6038 13.1966 52.5926 12.9633C52.0482 12.8336 51.5037 12.704 50.9593 12.5744C49.4037 12.2632 47.8222 12.0299 46.2406 11.8743C46.1888 11.8743 46.1629 11.8484 46.111 11.8484C44.5554 11.6928 43.0258 11.615 41.4702 11.615C40.3294 11.615 39.1887 11.6669 38.0738 11.7447C36.4923 11.8484 34.9108 12.0558 33.3293 12.3151C32.9404 12.3669 32.5515 12.4447 32.1626 12.5225C31.3589 12.678 30.5811 12.8595 29.8292 13.041C29.4403 13.1448 29.0514 13.2484 28.6625 13.3521C28.2736 13.5077 27.9107 13.6892 27.5477 13.8447C27.2625 13.9743 26.9773 14.104 26.6921 14.2336C26.6403 14.2596 26.5884 14.2596 26.5625 14.2854C26.3032 14.4151 26.0699 14.5188 25.8365 14.6484C25.7588 14.6744 25.7069 14.7002 25.6551 14.7262C25.3699 14.8558 25.0847 15.0114 24.8513 15.141C24.6698 15.2188 24.4884 15.3225 24.3328 15.4003C24.255 15.4521 24.1513 15.504 24.0995 15.5299C23.8661 15.6595 23.6328 15.7892 23.4254 15.9188C23.192 16.0484 22.9846 16.1781 22.8031 16.3077C22.6217 16.4373 22.4402 16.541 22.2846 16.6707C22.2586 16.6966 22.2328 16.6966 22.2068 16.7225C22.0513 16.8262 21.8698 16.9558 21.7142 17.0854C21.7142 17.0854 21.6883 17.1114 21.6624 17.1373C21.5328 17.241 21.4032 17.3447 21.2735 17.4484C21.2217 17.4743 21.1698 17.5261 21.118 17.5521C20.9883 17.6559 20.8587 17.7855 20.7291 17.8892C20.7031 17.941 20.6513 17.9669 20.6253 17.9929C20.4698 18.1485 20.3142 18.2781 20.1587 18.4337C20.1327 18.4337 20.1327 18.4596 20.1068 18.4855C19.9513 18.6151 19.7957 18.7707 19.6402 18.9262C19.6142 18.9522 19.6142 18.978 19.5884 18.978C19.4587 19.1077 19.3291 19.2373 19.1995 19.3928C19.1476 19.4447 19.0698 19.4966 19.018 19.5484C18.8883 19.704 18.7328 19.8595 18.5772 20.0151C18.5513 20.0669 18.4994 20.0929 18.4735 20.1447C18.2661 20.3521 18.0846 20.5595 17.8772 20.767C17.8512 20.7929 17.8254 20.8188 17.7994 20.8447C17.3846 21.2855 16.9438 21.7262 16.4771 22.1151C16.0105 22.5299 15.5179 22.9188 15.0253 23.2559C14.5067 23.6189 14.0141 23.93 13.4697 24.2411C12.9511 24.5263 12.4067 24.7855 11.8363 25.0189C11.2919 25.2522 10.7215 25.4596 10.1511 25.6411C9.06218 25.8745 7.94734 26.3152 6.98807 26.393C6.78066 26.393 6.54732 26.4448 6.33991 26.4708C6.10657 26.5226 5.89916 26.5745 5.69175 26.6263C5.48434 26.7041 5.27692 26.7819 5.06951 26.8597C4.8621 26.9374 4.65469 27.0412 4.44728 27.1449C4.26579 27.2745 4.05839 27.3782 3.87689 27.5078C3.69542 27.6375 3.51393 27.793 3.35837 27.9486C3.17689 28.0782 2.9954 28.2597 2.83984 28.4152C2.68428 28.5967 2.52872 28.7523 2.39909 28.9338C2.26946 29.1412 2.1139 29.3227 2.01019 29.5301C1.88056 29.7116 1.75093 29.919 1.64722 30.1264C1.54347 30.3597 1.43981 30.5671 1.36203 30.8005C1.28425 31.0079 1.20647 31.2412 1.12869 31.4746C1.07688 31.682 1.02495 31.8894 0.999064 32.0968C0.999064 32.1228 0.973098 32.1486 0.973098 32.1746C0.921285 32.4079 0.921285 32.719 0.895318 32.8746C0.869352 33.0561 0.843506 33.2116 0.843506 33.3931C0.843506 33.4969 0.843506 33.6265 0.869472 33.7302C0.895438 33.9117 0.921284 34.0672 0.973219 34.2228C1.02503 34.3783 1.07697 34.5339 1.1547 34.6895C1.1547 34.7154 1.1547 34.7154 1.1547 34.7154C1.23248 34.871 1.33619 35.0265 1.43989 35.1821C1.54363 35.3377 1.64731 35.4932 1.77694 35.6488C1.90657 35.7784 2.06213 35.934 2.21768 36.0636C2.37324 36.2191 2.5288 36.3488 2.71028 36.4784C3.33252 37.0229 3.48808 37.2044 4.2918 37.6192C4.42143 37.697 4.55107 37.7488 4.70663 37.8266C4.7326 37.8266 4.75844 37.8525 4.78441 37.8525C4.78441 37.9044 4.78441 37.9303 4.81038 37.9822C4.83635 38.1896 4.88816 38.397 4.94001 38.6044C4.99182 38.8378 5.06965 39.0452 5.14743 39.2267C5.22521 39.3822 5.27706 39.5378 5.35484 39.6933C5.3808 39.7452 5.40665 39.7971 5.43262 39.823C5.53636 40.0304 5.64003 40.2119 5.74372 40.3933C5.87337 40.5748 6.00299 40.7563 6.13262 40.9378C6.26225 41.0934 6.41781 41.2748 6.57337 41.4304C6.72893 41.586 6.88449 41.7156 7.06598 41.8711C7.06598 41.8711 7.09195 41.8971 7.11779 41.8971C7.27336 42.0268 7.42891 42.1564 7.58447 42.2601C7.76595 42.3897 7.94744 42.4934 8.15485 42.5972C8.33634 42.7009 8.54375 42.8046 8.75116 42.8824C8.90672 42.9601 9.0882 43.012 9.26969 43.0638C9.29566 43.0898 9.3215 43.0898 9.37344 43.1157C9.47718 43.1417 9.60676 43.1675 9.71047 43.1934C9.63269 44.5935 9.60673 45.9157 9.81422 46.3824C10.0475 46.9009 11.1883 45.3194 12.3291 43.5046C12.1735 45.2935 12.0698 47.3935 12.3291 48.0158C12.6143 48.6639 14.1699 46.6416 15.518 44.412C33.8999 40.1601 50.6743 52.864 52.4373 70.8051C52.1002 68.005 48.652 66.4494 47.0705 66.8383C46.2927 68.7569 44.9705 71.2199 42.8445 72.7496C43.026 71.0384 42.9482 69.2754 42.5852 67.5643C42.0148 69.9495 40.9 72.1792 39.3703 74.0977C36.9073 74.2792 34.4443 73.0866 33.148 71.2977C33.0442 71.2199 33.0184 71.0643 32.9406 70.9606C32.8628 70.7791 32.785 70.5977 32.7332 70.4162C32.6554 70.2347 32.6035 70.0532 32.5776 69.8717C32.5516 69.6902 32.5516 69.5088 32.5516 69.3013C32.5516 69.1717 32.5516 69.0421 32.5516 68.9125C32.5776 68.731 32.6294 68.5495 32.6813 68.368C32.7331 68.1865 32.785 68.005 32.8628 67.8235C32.9665 67.6421 33.0442 67.4606 33.1739 67.2791C33.6146 66.0346 33.6146 65.0235 32.8109 64.4272C32.6554 64.3234 32.4998 64.2457 32.3183 64.1679C32.2146 64.1419 32.085 64.0901 31.9813 64.0642C31.9035 64.0382 31.8516 64.0123 31.7739 63.9864C31.5924 63.9346 31.4109 63.8826 31.2294 63.8567C31.0479 63.8049 30.8664 63.779 30.6849 63.779C30.5035 63.753 30.296 63.7272 30.1146 63.7272C29.9849 63.7272 29.8553 63.7531 29.7257 63.7531C29.5183 63.7531 29.3368 63.7791 29.1553 63.8309C28.9738 63.8569 28.7923 63.8827 28.6108 63.9346C28.4293 63.9864 28.2479 64.0384 28.0664 64.1161C27.8849 64.1939 27.7293 64.2717 27.5478 64.3495C27.3923 64.4273 27.2367 64.531 27.0552 64.6087C21.0144 68.5495 24.6182 77.7793 28.7405 80.4498C27.1849 80.735 25.6034 81.072 25.1626 81.4091C25.1366 81.435 25.1108 81.4609 25.1108 81.4609C26.2256 82.1349 27.3923 82.7053 28.6109 83.1979C30.2702 83.7424 32.0332 84.235 32.811 84.4424V84.4684C34.9628 84.9091 37.1407 85.0647 39.3444 84.935C50.8298 84.1313 60.2411 75.3941 61.9523 63.8828C62.0041 64.1161 62.056 64.3235 62.1078 64.5569C62.1856 65.0235 62.2893 65.5161 62.3412 66.0087C62.3412 66.0087 62.3412 66.0087 62.3412 66.0347C62.393 66.2681 62.4189 66.5014 62.4449 66.7088C62.4449 66.7606 62.4449 66.7866 62.4449 66.8126C62.4709 67.0459 62.4967 67.2793 62.4967 67.4867C62.5227 67.7718 62.5485 68.057 62.5485 68.3422C62.5485 68.4719 62.5485 68.6015 62.5485 68.7571C62.5485 68.8867 62.5745 69.0422 62.5745 69.1719C62.5745 69.3274 62.5485 69.483 62.5485 69.6386C62.5485 69.7682 62.5485 69.8978 62.5485 70.0015C62.5485 70.183 62.5225 70.3386 62.5225 70.5201C62.5225 70.6238 62.5225 70.7275 62.4966 70.8571C62.4966 71.0386 62.4706 71.2201 62.4706 71.4275C62.4446 71.5053 62.4446 71.583 62.4446 71.6608C62.4187 71.8682 62.3928 72.0497 62.3668 72.2571C62.3668 72.3349 62.3668 72.4127 62.3409 72.4905C62.3149 72.7497 62.2631 72.9831 62.2371 73.2423V73.2683V73.2943C62.1853 73.5276 62.1334 73.7869 62.0816 74.0202C62.0816 74.0462 62.0816 74.072 62.0816 74.098C62.0298 74.3313 61.9778 74.5647 61.926 74.798C61.926 74.824 61.9001 74.8758 61.9001 74.9018C61.8482 75.1351 61.7963 75.3684 61.7186 75.6018C61.7186 75.6277 61.7186 75.6536 61.7186 75.6796C61.6408 75.9388 61.563 76.1722 61.5112 76.4055C61.4852 76.4314 61.4852 76.4573 61.4852 76.4573C61.4074 76.7166 61.3296 76.9758 61.2519 77.2351C61.1481 77.4944 61.0704 77.7277 60.9667 77.987C60.8629 78.2462 60.7852 78.5055 60.6815 78.7388C60.5777 78.9981 60.4741 79.2314 60.3704 79.4907H60.3444C60.2406 79.724 60.1369 79.9833 60.0073 80.2167C59.9813 80.2944 59.9555 80.3463 59.9295 80.3981C59.9036 80.4241 59.9036 80.4499 59.8777 80.4759C58.1925 83.8723 55.7036 86.8538 52.5924 89.1872C52.385 89.3168 52.1776 89.4724 51.9702 89.6279C51.9184 89.6797 51.8405 89.7057 51.7887 89.7576C51.6072 89.8872 51.4257 90.0168 51.2183 90.1465L51.2961 90.302H51.322C51.685 90.2502 52.048 90.1983 52.411 90.1465H52.4369C53.111 90.0427 53.7851 89.9131 54.4592 89.7835C54.6407 89.7575 54.8481 89.7057 55.0296 89.6538C55.1592 89.6278 55.2629 89.602 55.3925 89.5761C55.574 89.5501 55.7555 89.4983 55.937 89.4723C56.0925 89.4205 56.2481 89.3945 56.4037 89.3427C58.9963 88.7205 61.5112 87.8649 63.9223 86.8538C59.8 92.4798 54.2777 97.0169 47.822 99.9985C50.8036 99.791 53.7851 99.2984 56.6629 98.4688C67.1113 95.3835 75.9003 88.3575 81.1634 78.8943C80.1004 84.8833 77.7152 90.5872 74.1892 95.565C76.7041 93.9057 79.0115 91.9872 81.1115 89.8094C86.9191 83.7426 90.7303 76.0424 92.0266 67.7719C92.9081 71.8683 93.1673 76.0943 92.7784 80.2684C111.497 54.1605 94.334 27.0933 87.1524 19.9636C87.1264 19.9118 87.1006 19.8858 87.1006 19.8339C87.0746 19.8599 87.0746 19.8599 87.0746 19.8858C87.0746 19.8598 87.0746 19.8598 87.0486 19.8339C87.0486 20.1451 87.0227 20.4562 86.9968 20.7673C86.919 21.3636 86.8413 21.934 86.7376 22.5044C86.6079 23.0747 86.4524 23.6451 86.2968 24.2155C86.1153 24.76 85.9079 25.3303 85.6746 25.8748C85.4412 26.3933 85.182 26.9378 84.8968 27.4563C84.6116 27.9489 84.3005 28.4674 83.9634 28.9341C83.6264 29.4267 83.2634 29.8934 82.9004 30.3341C82.5115 30.8008 82.0967 31.2156 81.6819 31.6305C81.4226 31.8638 81.1893 32.0712 80.93 32.2786C80.7226 32.4601 80.5411 32.6157 80.3337 32.7971C79.867 33.1601 79.4004 33.4972 78.8818 33.8083C78.3892 34.1194 77.8707 34.4305 77.3522 34.6898C76.8077 34.949 76.2633 35.1824 75.7188 35.4157C75.1744 35.6231 74.604 35.8046 74.0336 35.9602C73.4632 36.1157 72.8669 36.2454 72.2965 36.3491C71.7002 36.4528 71.1039 36.5046 70.5335 36.5565C70.1187 36.5824 69.7039 36.6083 69.2891 36.6083C68.6928 36.6083 68.0965 36.5565 67.5261 36.5046C66.9298 36.4527 66.3335 36.3749 65.7631 36.2453C65.1668 36.1415 64.5964 35.986 64.026 35.8045H64C64.5704 35.7527 65.1408 35.7008 65.7112 35.5971C66.3075 35.4934 66.8779 35.3638 67.4483 35.2082C68.0186 35.0527 68.589 34.8712 69.1335 34.6638C69.7039 34.4564 70.2483 34.1971 70.7668 33.9378C71.3113 33.6786 71.8039 33.3934 72.3224 33.0823C72.815 32.7452 73.3076 32.4082 73.7743 32.0452C74.241 31.6822 74.6817 31.2933 75.0966 30.8785C75.5373 30.4896 75.9262 30.0489 76.3151 29.6081C76.704 29.1415 77.067 28.6748 77.404 28.2081C77.4558 28.1303 77.5078 28.0266 77.5596 27.9488C77.8188 27.534 78.0781 27.1192 78.3114 26.7044C78.5966 26.1858 78.8559 25.6673 79.0892 25.1229C79.3226 24.5784 79.53 24.0339 79.7115 23.4636C79.8929 22.9191 80.0226 22.3487 80.1522 21.7783C80.256 21.182 80.3596 20.6116 80.4115 20.0413C80.4633 19.445 80.5152 18.8487 80.5152 18.2783C80.5152 17.8634 80.4892 17.4486 80.4634 17.0338C80.4116 16.4375 80.3338 15.8671 80.256 15.2967C80.1522 14.7004 80.0227 14.1301 79.8671 13.5597C79.6856 13.0152 79.5041 12.4448 79.2967 11.9004C79.0893 11.3559 78.83 10.8115 78.5708 10.2929C78.2856 9.7744 78.0004 9.25588 77.6893 8.76328C77.3522 8.27068 77.0152 7.804 76.6522 7.33732C76.2633 6.89657 75.8744 6.45582 75.4596 6.01508C75.2522 5.80767 75.0189 5.57433 74.7855 5.36692C73.6188 4.45949 72.4003 3.60391 71.1817 2.82613C71.0003 2.72238 70.8447 2.64464 70.6632 2.56685C69.8076 2.02241 69.0039 1.73706 68.2002 1.47781Z" fill="#E0234E"/>
</g>
</g>
<defs>
<clipPath id="clip0_409_123">
<rect width="100.392" height="100" fill="white" transform="translate(0.843506)"/>
</clipPath>
</defs>
</svg>
