<svg width="151" height="92" viewBox="0 0 151 92" fill="none" xmlns="http://www.w3.org/2000/svg">
<g id="tailwindcss-icon 1" clip-path="url(#clip0_409_120)">
<g id="Group">
<path id="Vector" d="M75.8435 0.882812C55.8435 0.882812 43.3435 10.8828 38.3435 30.8828C45.8435 20.8828 54.5935 17.1328 64.5935 19.6328C70.2991 21.0592 74.3771 25.1984 78.891 29.7803C86.2443 37.2442 94.7549 45.8828 113.344 45.8828C133.344 45.8828 145.844 35.8828 150.844 15.8828C143.344 25.8828 134.594 29.6328 124.594 27.1328C118.888 25.7064 114.81 21.5673 110.296 16.9853C102.943 9.52142 94.4321 0.882812 75.8435 0.882812ZM38.3435 45.8828C18.3435 45.8828 5.84351 55.8828 0.843506 75.8828C8.34351 65.8828 17.0935 62.1328 27.0935 64.6328C32.7991 66.0592 36.8771 70.1984 41.391 74.7803C48.7443 82.2442 57.2549 90.8828 75.8435 90.8828C95.8435 90.8828 108.344 80.8828 113.344 60.8828C105.844 70.8828 97.0935 74.6328 87.0935 72.1328C81.3879 70.7064 77.3099 66.5673 72.796 61.9853C65.4427 54.5214 56.9321 45.8828 38.3435 45.8828Z" fill="url(#paint0_linear_409_120)"/>
</g>
</g>
<defs>
<linearGradient id="paint0_linear_409_120" x1="-415.823" y1="2880.88" x2="12539.1" y2="10350.4" gradientUnits="userSpaceOnUse">
<stop stop-color="#2298BD"/>
<stop offset="1" stop-color="#0ED7B5"/>
</linearGradient>
<clipPath id="clip0_409_120">
<rect width="150" height="90.2344" fill="white" transform="translate(0.843506 0.882812)"/>
</clipPath>
</defs>
</svg>
