<svg width="101" height="100" viewBox="0 0 101 100" fill="none" xmlns="http://www.w3.org/2000/svg">
<g id="typescript-icon 1" clip-path="url(#clip0_409_109)">
<g id="Group">
<path id="Vector" d="M8.62585 0H93.0009C97.3156 0 100.813 3.49778 100.813 7.8125V92.1875C100.813 96.5022 97.3156 100 93.0009 100H8.62585C4.31113 100 0.813354 96.5022 0.813354 92.1875V7.8125C0.813354 3.49778 4.31113 0 8.62585 0Z" fill="#3178C6"/>
<path id="Vector_2" d="M59.6095 78.3106V89.0996C61.3641 89.9988 63.4395 90.673 65.8352 91.1227C68.2309 91.5723 70.7559 91.7969 73.4106 91.7969C75.9973 91.7969 78.4552 91.5496 80.7833 91.0551C83.1114 90.5605 85.1532 89.7457 86.9075 88.6109C88.6622 87.4758 90.0512 85.9922 91.0751 84.1602C92.0985 82.3285 92.6102 80.0641 92.6102 77.3668C92.6102 75.4113 92.3176 73.6973 91.7329 72.225C91.1481 70.7527 90.3044 69.4434 89.202 68.2973C88.1001 67.1508 86.7782 66.1227 85.2376 65.2121C83.6966 64.302 81.9587 63.4422 80.0239 62.6332C78.6067 62.0484 77.336 61.4812 76.211 60.9305C75.0864 60.3797 74.1301 59.818 73.343 59.2445C72.5555 58.6715 71.9481 58.0645 71.5208 57.4238C71.0934 56.7832 70.8798 56.0586 70.8798 55.2492C70.8798 54.5074 71.0708 53.8391 71.4532 53.2434C71.8356 52.6477 72.3759 52.1363 73.0731 51.7094C73.7704 51.282 74.6251 50.9508 75.6376 50.7145C76.6497 50.4785 77.7747 50.3605 79.0118 50.3605C79.9118 50.3605 80.8622 50.4281 81.863 50.5629C82.8641 50.6977 83.8708 50.9055 84.8833 51.1867C85.8954 51.4676 86.8794 51.8215 87.8356 52.2488C88.7915 52.6758 89.6747 53.1703 90.4845 53.732V43.6512C88.8423 43.0219 87.0481 42.5555 85.1024 42.252C83.1567 41.9484 80.9239 41.7969 78.4044 41.7969C75.8399 41.7969 73.4106 42.0723 71.1161 42.623C68.8216 43.1734 66.8024 44.0332 65.0591 45.202C63.3157 46.3711 61.938 47.8602 60.9255 49.6695C59.9134 51.4789 59.4071 53.6422 59.4071 56.1598C59.4071 59.3738 60.3348 62.116 62.1911 64.3863C64.0469 66.6562 66.8641 68.5781 70.6434 70.1516C72.1282 70.7586 73.5118 71.3539 74.7938 71.9387C76.0762 72.523 77.1841 73.1297 78.1177 73.759C79.0512 74.3883 79.788 75.0738 80.3278 75.8156C80.8677 76.5574 81.1376 77.4004 81.1376 78.3445C81.1376 79.041 80.9688 79.6875 80.6313 80.2832C80.2942 80.8785 79.7821 81.3957 79.0962 81.834C78.4102 82.2723 77.5552 82.6148 76.5317 82.8621C75.5083 83.1094 74.3102 83.2332 72.938 83.2332C70.5985 83.2332 68.2817 82.823 65.9872 82.0023C63.6923 81.182 61.5665 79.9516 59.6095 78.3106ZM41.6266 51.4617H55.5009V42.5781H16.829V51.4617H30.6355V91.0156H41.6266V51.4617Z" fill="white"/>
</g>
</g>
<defs>
<clipPath id="clip0_409_109">
<rect width="100" height="100" fill="white" transform="translate(0.813354)"/>
</clipPath>
</defs>
</svg>
